<svg width="409" height="149" viewBox="0 0 409 149" fill="none" xmlns="http://www.w3.org/2000/svg">
<g clip-path="url(#clip0_109_51)">
<path d="M11.1773 120.85V104.709H30.1644V95.6048H11.1773V81.53H31.3134V72.198H0V130.252H32.4623V120.92H11.1773V120.85ZM42.8027 98.1324C45.5611 96.4474 49.31 95.2232 53.1381 95.2232C59.2641 95.2232 60.7201 98.3603 60.7201 102.568C47.3192 102.568 37.7513 107.618 37.7513 118.402C37.7513 125.212 42.5749 131.025 50.3846 131.025C55.0546 131.025 59.1898 129.112 61.562 125.821H61.7898L62.4781 130.182H72.5065C72.046 127.58 71.8924 123.908 71.8924 120.241V104.867C71.8924 95.6891 68.3714 87.3532 55.2775 87.3532C48.691 87.3532 43.4861 89.2662 40.6534 90.8719L42.8027 98.1324ZM61.0222 115.805C61.0222 121.158 56.6592 123.071 53.98 123.071C51.1473 123.071 48.6959 121.311 48.6959 117.332C48.6959 111.211 54.9754 109.759 61.0222 109.759V115.805ZM79.3258 128.195C82.1585 129.88 86.6008 131.025 91.1915 131.025C101.68 131.025 107.732 125.747 107.732 117.713C107.732 111.9 104.439 107.846 97.3175 104.863C92.494 102.796 90.8845 101.651 90.8845 99.2772C90.8845 96.9826 92.7218 95.2976 96.0894 95.2976C99.2291 95.2976 102.215 96.5217 104.053 97.5178L106.197 89.6379C103.746 88.3395 100.071 87.269 95.7823 87.269C86.4423 87.269 80.3906 93.0079 80.3906 100.581C80.3906 105.17 83.3025 109.605 91.1123 112.817C95.708 114.804 97.159 116.108 97.159 118.704C97.159 121.306 95.2425 122.912 91.3401 122.912C87.8933 122.912 83.6839 121.381 81.5395 120.082L79.3258 128.195ZM148.925 112.514C149.153 111.29 149.232 109.685 149.232 108.079C149.232 94.465 142.572 87.2739 132.39 87.2739C120.063 87.2739 113.096 97.6764 113.096 109.764C113.096 122.843 120.524 131.03 133.539 131.03C138.743 131.03 143.646 130.113 147.167 128.582L145.558 120.855C142.646 121.851 139.432 122.615 135.297 122.615C129.25 122.615 124.119 119.706 123.812 112.594H148.925V112.514ZM123.807 104.788C124.114 100.66 126.412 95.0746 131.771 95.0746C137.283 95.0746 139.046 100.427 138.966 104.788H123.807ZM196.779 72.1286L190.193 93.9297C188.202 100.888 186.518 107.925 185.141 114.427H184.914C183.611 107.772 181.927 100.967 180.09 93.9297L173.811 72.1286H159.954L156.052 130.182H166.234L167.383 107.846C167.764 100.655 168.15 92.0911 168.304 84.7464H168.532C169.908 91.8582 171.746 99.7381 173.583 106.24L180.016 129.34H188.514L195.635 105.859C197.626 99.3565 199.691 91.6302 201.38 84.7464H201.608C201.529 90.6341 201.915 99.9661 202.222 107.618L203.292 130.182H213.934L210.641 72.1286H196.779ZM241.033 110.146C240.419 112.747 239.731 115.731 239.275 118.025H239.047C238.507 115.657 237.745 112.747 237.056 110.146L230.856 88.1908H218.604L232.768 126.817C233.075 127.66 233.228 128.269 233.228 128.73C233.228 129.573 231.312 133.855 227.637 136.531C225.646 137.909 223.581 139.133 221.744 139.589L224.577 148.995C227.102 148.534 231.391 147.008 235.447 143.107C240.191 138.365 243.792 130.946 248.462 117.332L257.955 88.1115H246.317L241.033 110.146ZM259.258 72.1286V81.7679H273.58V130.187H284.757V81.7679H299.153V72.1286H259.258ZM314.768 95.4562L314.307 88.1115H304.734C304.888 91.8582 305.042 96.0657 305.042 101.269V130.182H316.219V108.461C316.219 101.269 320.047 97.9044 325.098 97.9044C326.247 97.9044 327.163 97.9787 328.005 98.1324V87.5019C327.243 87.3483 326.549 87.2739 325.48 87.2739C321.577 87.2739 316.981 90.1038 315.07 95.5355H314.763V95.4562H314.768ZM345.779 76.6385C345.779 73.1941 343.328 70.6716 339.727 70.6716C336.281 70.6716 333.755 73.1941 333.755 76.6385C333.755 80.0036 336.206 82.6054 339.727 82.6054C343.248 82.6847 345.779 80.3108 345.779 76.6385ZM334.215 130.182H345.393V88.1164H334.215V130.182ZM364.92 88.1908H355.198C355.352 92.0168 355.505 96.5266 355.505 101.958V147.087H366.683V126.128H366.836C368.673 128.958 372.195 131.025 376.79 131.025C385.368 131.025 394.094 124.215 394.094 108.768C394.094 95.8427 387.279 87.2739 378.093 87.2739C372.655 87.2739 368.371 89.6429 365.613 93.9297H365.459L364.92 88.1908ZM366.683 105.403C366.683 100.353 370.05 96.2987 374.413 96.2987C379.925 96.2987 382.837 101.73 382.837 109.224C382.837 116.796 379.856 122.382 374.185 122.382C370.437 122.382 366.683 119.398 366.683 113.357V105.403Z" fill="#005B9B"/>
<path fill-rule="evenodd" clip-rule="evenodd" d="M72.2737 93.6225C103.057 31.5098 187.127 79.0124 233.758 37.5511C187.281 86.0498 95.3217 45.1237 72.2737 93.6225Z" fill="#005B9B"/>
<path fill-rule="evenodd" clip-rule="evenodd" d="M212.107 38.6612L217.668 44.5935C220.377 47.5224 219.624 47.5968 216.539 49.4751L198.869 57.7366C196.764 59.0152 195.412 57.9596 196.913 55.5609L208.115 37.6106C209.175 35.3556 210.378 36.555 212.107 38.6612Z" fill="#005B9B"/>
<path d="M371.848 147.087C372.2 147.087 372.432 146.968 372.551 146.735C372.67 146.502 372.705 146.225 372.705 145.912C372.705 145.64 372.591 145.442 372.393 145.288C372.2 145.129 371.962 145.015 371.724 145.015C371.412 145.015 371.214 145.134 371.095 145.407C370.981 145.68 370.942 145.917 370.942 146.19C370.942 146.463 371.021 146.661 371.214 146.854C371.343 147.008 371.576 147.087 371.848 147.087ZM376.84 147.161C377.503 147.161 378.132 147.042 378.756 146.809C379.385 146.577 379.97 146.299 380.48 145.912C381.024 145.521 381.495 145.09 381.926 144.584C382.357 144.074 382.748 143.568 383.025 143.018C383.065 142.939 383.104 142.865 383.139 142.746C383.179 142.627 383.218 142.552 383.218 142.473C383.218 142.24 383.1 142.121 382.867 142.121C382.713 142.121 382.594 142.2 382.476 142.314C382.357 142.473 382.282 142.587 382.203 142.706C381.965 143.097 381.693 143.489 381.381 143.881C381.069 144.272 380.678 144.584 380.321 144.896C379.93 145.209 379.499 145.442 379.073 145.64C378.642 145.833 378.132 145.912 377.667 145.912C377.196 145.912 376.805 145.754 376.493 145.442C376.26 145.209 376.102 144.936 376.023 144.619C375.904 144.307 375.869 143.955 375.869 143.563C375.869 143.172 375.909 142.741 375.983 142.314C376.062 141.883 376.176 141.452 376.335 141.066C376.488 140.674 376.647 140.283 376.845 139.97C377.038 139.658 377.236 139.385 377.39 139.187C377.548 139.029 377.741 138.875 377.9 138.796C378.093 138.677 378.291 138.637 378.489 138.637C378.761 138.637 378.915 138.716 378.959 138.91C378.999 139.103 379.039 139.301 379.039 139.495C379.039 139.846 378.959 140.159 378.845 140.392C378.692 140.624 378.652 140.862 378.652 141.016C378.652 141.175 378.732 141.249 378.89 141.249C379.083 141.249 379.281 141.17 379.474 141.016C379.668 140.823 379.826 140.545 379.905 140.193C379.985 139.841 380.019 139.569 380.019 139.296C380.019 138.672 379.866 138.241 379.509 137.968C379.197 137.696 378.727 137.577 378.182 137.577C377.711 137.577 377.241 137.696 376.85 137.849C376.459 138.042 376.067 138.32 375.755 138.632C375.478 138.905 375.245 139.177 375.052 139.529C374.814 139.881 374.661 140.273 374.502 140.664C374.349 141.056 374.23 141.487 374.111 141.913C374.032 142.344 373.992 142.775 373.992 143.241C373.992 143.826 374.071 144.416 374.265 144.961C374.423 145.506 374.735 145.977 375.126 146.368C375.319 146.562 375.597 146.76 375.869 146.879C376.097 147.087 376.449 147.161 376.84 147.161ZM382.357 144.074C382.357 145.09 382.594 145.873 382.986 146.339C383.416 146.809 383.927 147.082 384.511 147.082C384.981 147.082 385.452 146.963 385.957 146.691C386.467 146.418 386.898 146.026 387.329 145.516C387.72 145.006 388.072 144.381 388.344 143.638C388.616 142.894 388.735 142.037 388.735 141.056C388.735 140.664 388.696 140.273 388.577 139.881C388.498 139.529 388.344 139.217 388.186 138.944C388.032 138.672 387.794 138.474 387.522 138.32C387.25 138.161 386.938 138.087 386.581 138.087C385.952 138.087 385.407 138.28 384.858 138.632C384.347 139.024 383.882 139.495 383.53 140.079C383.179 140.664 382.862 141.328 382.669 141.992C382.476 142.746 382.357 143.41 382.357 144.074ZM386.581 139.579C386.972 139.579 387.284 139.772 387.443 140.124C387.636 140.515 387.715 140.947 387.755 141.492C387.755 142.195 387.675 142.82 387.517 143.37C387.363 143.915 387.126 144.386 386.888 144.778C386.616 145.169 386.343 145.442 386.026 145.675C385.714 145.868 385.442 145.987 385.125 145.987C384.813 145.987 384.536 145.828 384.303 145.516C384.065 145.204 383.991 144.733 383.991 144.069C383.991 143.598 384.07 143.093 384.184 142.582C384.338 142.072 384.536 141.566 384.729 141.135C384.967 140.704 385.239 140.312 385.551 140.04C385.878 139.737 386.229 139.579 386.581 139.579ZM396.991 146.537C397.149 146.537 397.228 146.497 397.342 146.418C397.456 146.339 397.535 146.259 397.615 146.106C397.734 145.912 397.887 145.635 398.085 145.209C398.323 144.817 398.556 144.351 398.868 143.841C399.18 143.335 399.497 142.825 399.809 142.314C400.121 141.804 400.477 141.298 400.784 140.867C401.096 140.436 401.373 140.084 401.646 139.812C401.918 139.539 402.116 139.381 402.309 139.381C402.428 139.381 402.503 139.42 402.547 139.499C402.587 139.579 402.626 139.693 402.666 139.812C402.706 139.931 402.706 140.045 402.706 140.164V140.436C402.706 141.1 402.666 141.764 402.592 142.428C402.513 143.093 402.473 143.757 402.473 144.421C402.473 144.693 402.473 145.006 402.513 145.357C402.552 145.709 402.592 146.021 402.706 146.334C402.824 146.646 402.983 146.918 403.176 147.117C403.369 147.31 403.686 147.429 404.038 147.429C404.429 147.429 404.86 147.31 405.33 147.037C405.801 146.765 406.232 146.453 406.663 146.101C407.093 145.749 407.524 145.357 407.876 144.926C408.267 144.535 408.544 144.143 408.777 143.871C408.817 143.791 408.856 143.752 408.936 143.638C408.975 143.558 409.015 143.479 409.015 143.405C409.015 143.286 408.975 143.172 408.936 143.093C408.896 142.974 408.817 142.939 408.658 142.939C408.505 142.939 408.386 143.018 408.267 143.132C408.153 143.291 408.034 143.405 407.955 143.524C407.802 143.717 407.603 143.955 407.331 144.267C407.054 144.579 406.747 144.852 406.43 145.164C406.118 145.437 405.761 145.709 405.449 145.907C405.137 146.101 404.825 146.22 404.588 146.22C404.429 146.22 404.315 146.18 404.196 146.061C404.117 145.942 404.038 145.828 404.003 145.709C403.964 145.556 403.964 145.437 403.964 145.278V144.887C403.964 144.024 404.003 143.167 404.117 142.344C404.236 141.521 404.276 140.664 404.276 139.802C404.276 139.608 404.236 139.371 404.196 139.177C404.157 138.944 404.077 138.746 403.959 138.593C403.84 138.399 403.686 138.241 403.528 138.122C403.335 138.003 403.136 137.928 402.904 137.928C402.552 137.928 402.235 138.047 401.889 138.28C401.537 138.513 401.299 138.751 401.066 138.984C400.789 139.296 400.517 139.609 400.284 139.96C400.046 140.312 399.813 140.664 399.576 140.976C399.264 141.407 398.952 141.839 398.64 142.265C398.328 142.696 398.055 143.122 397.778 143.593C397.738 143.633 397.699 143.712 397.625 143.826C397.545 143.945 397.506 144.019 397.466 144.019C397.427 144.019 397.387 143.94 397.352 143.826C397.313 143.707 397.313 143.553 397.313 143.355C397.313 143.202 397.273 143.003 397.273 142.85V142.458C397.273 142.027 397.273 141.601 397.313 141.13C397.313 140.699 397.352 140.273 397.352 139.841C397.352 139.683 397.352 139.49 397.313 139.296C397.273 139.103 397.233 138.865 397.194 138.672C397.114 138.479 397.04 138.32 396.921 138.161C396.803 138.042 396.649 137.968 396.411 137.968C396.099 137.968 395.782 138.127 395.436 138.439C395.084 138.751 394.732 139.143 394.376 139.534C394.024 139.965 393.712 140.392 393.435 140.823C393.163 141.254 392.925 141.606 392.771 141.839C392.851 141.408 392.925 140.976 393.044 140.55C393.163 140.119 393.281 139.688 393.435 139.301C393.514 139.143 393.554 138.989 393.673 138.756C393.752 138.563 393.866 138.325 393.945 138.132C394.024 137.899 394.104 137.7 394.183 137.507C394.262 137.314 394.262 137.116 394.262 136.962C394.262 136.808 394.222 136.65 394.143 136.571C394.064 136.452 393.95 136.412 393.792 136.412C393.48 136.412 393.163 136.491 392.816 136.645C392.464 136.803 392.187 137.036 392.033 137.309C391.954 137.502 391.84 137.819 391.721 138.246C391.608 138.716 391.449 139.222 391.33 139.807C391.211 140.392 391.058 141.016 390.939 141.685C390.785 142.349 390.667 142.974 390.587 143.563C390.469 144.148 390.394 144.698 390.31 145.204C390.231 145.709 390.196 146.061 390.196 146.299C390.196 146.418 390.236 146.532 390.31 146.651C390.389 146.77 390.503 146.809 390.662 146.809C390.855 146.809 391.053 146.73 391.172 146.577C391.291 146.418 391.409 146.264 391.484 146.106C391.563 145.912 391.717 145.635 391.915 145.248C392.108 144.857 392.385 144.386 392.657 143.92C392.93 143.41 393.242 142.904 393.598 142.394C393.95 141.883 394.262 141.378 394.574 140.947C394.886 140.515 395.158 140.164 395.436 139.891C395.708 139.618 395.906 139.46 396.06 139.46C396.179 139.46 396.253 139.539 396.253 139.653C396.253 139.772 396.292 139.886 396.292 139.926V140.55V141.606C396.292 141.997 396.292 142.389 396.332 142.815C396.332 143.246 396.372 143.677 396.411 144.104C396.451 144.535 396.491 144.926 396.53 145.278C396.57 145.63 396.649 145.942 396.763 146.175C396.713 146.418 396.832 146.537 396.991 146.537Z" fill="#252220"/>
<path fill-rule="evenodd" clip-rule="evenodd" d="M181.006 0.148665L290.115 9.17341C295.399 9.48068 294.557 10.5512 291.952 12.9994L238.735 65.0912C235.749 68.3819 235.061 67.4601 231.539 63.5598L210.715 39.9993C207.957 37.0951 207.501 36.4806 212.245 34.7956L264.007 18.1238L205.738 28.5263C201.375 29.4432 201.91 30.0577 198.849 25.6965L179.471 3.51374C177.025 0.837539 177.252 -0.460915 181.006 0.148665Z" fill="#00A4D5"/>
</g>
<defs>
<clipPath id="clip0_109_51">
<rect width="409" height="149" fill="white"/>
</clipPath>
</defs>
</svg>
